PathFileType	4	(X/Y/Z)	SUB01_off_static_1_1707858583308
DataRate	CameraRate	NumFrames	NumMarkers	Units	OrigDataRate	OrigDataStartFrame	OrigNumFrames
150.00	150.00	       4	71	mm  	150.00	1	       150
Frame#	Time	CLAV			STRN			C7			T10			RSHO			LSHO			RUPA			REL			REM			RFRA			RWL			RWM			LUPA			LEL			LEM			LFRA			LWL			LWM			R.ASIS			L.ASIS			R.PSIS			L.PSIS			R.GTR			R.Knee			R.HF			R.TT			R.Ankle			R.Heel			R.MT1			R.MT5			L.GTR			L.Knee			L.HF			L.TT			L.Ankle			L.Heel			L.MT1			L.MT5			R.Knee.Medial			R.Ankle.Medial			R.MT2			L.Knee.Medial			L.Ankle.Medial			L.MT2			V_Mid_ASIS			V_Mid_PSIS			V_Pelvis_Origin			V_R.Hip_JC			V_R.Knee_JC_Static			V_R.TT			V_R.Ankle_JC			V_L.Hip_JC			V_Mid_Hip			V_R.MT2			V_R.Knee.Medial			V_R.Ankle.Medial			V_R.TT			V_L.Knee_JC_Static			V_L.TT			V_L.Ankle_JC			V_L.MT2			V_L.Knee.Medial			V_L.Ankle.Medial			V_R.Knee_JC2			V_R.Knee2			V_R.Knee_JC_Dynamic			V_R.Ankle_JC_Dynamic			V_L.Knee_JC_Dynamic			V_L.Ankle_JC_Dynamic			V_R.TT2			V_L.TT2			
		X1	Y1	Z1	X2	Y2	Z2	X3	Y3	Z3	X4	Y4	Z4	X5	Y5	Z5	X6	Y6	Z6	X7	Y7	Z7	X8	Y8	Z8	X9	Y9	Z9	X10	Y10	Z10	X11	Y11	Z11	X12	Y12	Z12	X13	Y13	Z13	X14	Y14	Z14	X15	Y15	Z15	X16	Y16	Z16	X17	Y17	Z17	X18	Y18	Z18	X19	Y19	Z19	X20	Y20	Z20	X21	Y21	Z21	X22	Y22	Z22	X23	Y23	Z23	X24	Y24	Z24	X25	Y25	Z25	X26	Y26	Z26	X27	Y27	Z27	X28	Y28	Z28	X29	Y29	Z29	X30	Y30	Z30	X31	Y31	Z31	X32	Y32	Z32	X33	Y33	Z33	X34	Y34	Z34	X35	Y35	Z35	X36	Y36	Z36	X37	Y37	Z37	X38	Y38	Z38	X39	Y39	Z39	X40	Y40	Z40	X41	Y41	Z41	X42	Y42	Z42	X43	Y43	Z43	X44	Y44	Z44	X45	Y45	Z45	X46	Y46	Z46	X47	Y47	Z47	X48	Y48	Z48	X49	Y49	Z49	X50	Y50	Z50	X51	Y51	Z51	X52	Y52	Z52	X53	Y53	Z53	X54	Y54	Z54	X55	Y55	Z55	X56	Y56	Z56	X57	Y57	Z57	X58	Y58	Z58	X59	Y59	Z59	X60	Y60	Z60	X61	Y61	Z61	X62	Y62	Z62	X63	Y63	Z63	X64	Y64	Z64	X65	Y65	Z65	X66	Y66	Z66	X67	Y67	Z67	X68	Y68	Z68	X69	Y69	Z69	X70	Y70	Z70	X71	Y71	Z71	
1	0.000000	965.813904	1390.555054	588.075378	971.729431	1230.995605	581.239380	832.300415	1488.595093	587.893127	738.059753	1233.219482	564.902527	835.807617	1480.817871	732.709534	868.957031	1495.234741	443.430054	871.509827	1462.423462	911.882996	904.187378	1473.179688	1005.486328	933.116211	1373.100342	1016.397827	939.979126	1474.033936	1172.424438	1015.184814	1436.208740	1251.358398	950.570129	1466.181396	1271.311401	938.552734	1479.726563	276.561432	992.447144	1491.526123	167.365540	1004.372559	1389.644287	152.870270	1023.270142	1479.220093	23.248594	1122.592163	1435.433594	-43.305920	1058.411011	1463.115723	-70.599976	959.298157	943.672791	678.932556	957.675903	935.750488	471.130920	758.047180	1009.943665	604.781677	763.979797	1008.540100	525.988953	856.572266	883.291016	753.365540	861.375732	512.480103	730.555603	862.954224	441.162872	732.421021	905.798035	398.107941	681.448364	781.555603	93.214836	725.032654	724.817627	49.759556	681.624207	927.053772	43.096260	676.665222	888.899048	30.950436	761.606506	872.008911	882.794067	393.865936	867.873535	497.425232	433.894775	874.075867	438.992676	436.881866	915.986206	393.579437	483.837738	781.248413	76.656364	462.533020	733.321350	53.582592	512.958679	942.560120	40.123573	497.967834	889.564758	33.124664	422.917114	869.005920	501.981781	601.084229	807.832092	94.649803	640.782104	928.905823	38.825298	716.032837	888.683105	499.711121	563.663818	817.551453	80.115997	546.249207	932.470337	38.783695	459.101379	0.000000	0.000000	0.000000	0.000000	0.000000	0.000000	0.000000	0.000000	0.000000	0.000000	0.000000	0.000000	0.000000	0.000000	0.000000	0.000000	0.000000	0.000000	0.000000	0.000000	0.000000	0.000000	0.000000	0.000000	0.000000	0.000000	0.000000	0.000000	0.000000	0.000000	0.000000	0.000000	0.000000	0.000000	0.000000	0.000000	0.000000	0.000000	0.000000	0.000000	0.000000	0.000000	0.000000	0.000000	0.000000	0.000000	0.000000	0.000000	0.000000	0.000000	0.000000	0.000000	0.000000	0.000000	0.000000	0.000000	0.000000	0.000000	0.000000	0.000000	0.000000	0.000000	0.000000	0.000000	0.000000	0.000000	0.000000	0.000000	0.000000	0.000000	0.000000	0.000000	0.000000	0.000000	0.000000	0.000000	0.000000	0.000000	0.000000	0.000000	0.000000	
2	0.006667	965.884155	1390.554077	588.069885	971.770752	1230.992310	581.251343	832.346313	1488.593384	587.872070	738.112488	1233.216553	564.906433	835.842712	1480.822021	732.701111	869.026672	1495.225342	443.409576	871.559387	1462.415161	911.882141	904.234619	1473.186279	1005.483154	933.202026	1373.126343	1016.389465	940.016724	1474.063232	1172.422974	1015.204895	1436.238892	1251.364746	950.597473	1466.192139	1271.286011	938.652954	1479.707764	276.559479	992.535339	1491.504028	167.356903	1004.500427	1389.612061	152.872055	1023.356750	1479.171143	23.233732	1122.658936	1435.386597	-43.319794	1058.474487	1463.061157	-70.618904	959.326294	943.662231	678.951538	957.730957	935.740112	471.153931	758.144226	1009.939758	604.779602	763.962402	1008.565125	525.968628	856.596558	883.281128	753.369629	861.365967	512.477295	730.552856	862.947998	441.158295	732.421570	905.793274	398.102661	681.448486	781.552063	93.209160	725.029053	724.817078	49.751308	681.620300	927.050354	43.096031	676.663635	888.894958	30.953421	761.606445	872.064514	882.793701	393.875763	867.902100	497.419067	433.893921	874.098083	438.987396	436.881897	916.012939	393.565796	483.838593	781.247314	76.655365	462.531219	733.319153	53.578831	512.955627	942.558777	40.124710	497.966766	889.563477	33.124008	422.914795	868.998779	501.978394	601.084473	807.829285	94.643684	640.777954	928.904419	38.825657	716.030579	888.713074	499.702423	563.658752	817.551941	80.113480	546.248291	932.467590	38.784073	459.099548	0.000000	0.000000	0.000000	0.000000	0.000000	0.000000	0.000000	0.000000	0.000000	0.000000	0.000000	0.000000	0.000000	0.000000	0.000000	0.000000	0.000000	0.000000	0.000000	0.000000	0.000000	0.000000	0.000000	0.000000	0.000000	0.000000	0.000000	0.000000	0.000000	0.000000	0.000000	0.000000	0.000000	0.000000	0.000000	0.000000	0.000000	0.000000	0.000000	0.000000	0.000000	0.000000	0.000000	0.000000	0.000000	0.000000	0.000000	0.000000	0.000000	0.000000	0.000000	0.000000	0.000000	0.000000	0.000000	0.000000	0.000000	0.000000	0.000000	0.000000	0.000000	0.000000	0.000000	0.000000	0.000000	0.000000	0.000000	0.000000	0.000000	0.000000	0.000000	0.000000	0.000000	0.000000	0.000000	0.000000	0.000000	0.000000	0.000000	0.000000	0.000000	
3	0.013333	965.953003	1390.552734	588.064697	971.811890	1230.988647	581.263672	832.392029	1488.591431	587.851501	738.164612	1233.213379	564.910034	835.877136	1480.825317	732.693054	869.095215	1495.215454	443.389374	871.606384	1462.406494	911.881470	904.280457	1473.192383	1005.480042	933.284973	1373.151123	1016.381470	940.054077	1474.091797	1172.421265	1015.225403	1436.267944	1251.370361	950.625427	1466.203247	1271.261353	938.751038	1479.687866	276.556946	992.621643	1491.480347	167.348068	1004.623718	1389.579346	152.873016	1023.442078	1479.122070	23.219355	1122.727173	1435.340820	-43.332588	1058.538452	1463.005737	-70.636864	959.354614	943.651550	678.970154	957.786133	935.729858	471.176422	758.241272	1009.935913	604.777710	763.946533	1008.589355	525.948914	856.620361	883.271667	753.373901	861.356812	512.474487	730.550476	862.942078	441.153717	732.422302	905.788940	398.097351	681.448914	781.548523	93.203590	725.025452	724.816528	49.743317	681.616394	927.046997	43.095810	676.662048	888.890930	30.956217	761.606323	872.120483	882.793213	393.885468	867.930664	497.412964	433.893066	874.120422	438.982056	436.882111	916.039368	393.552429	483.839630	781.246338	76.654297	462.529358	733.317017	53.575062	512.952637	942.557251	40.125778	497.965698	889.562256	33.123417	422.912567	868.992249	501.975128	601.084961	807.826782	94.637642	640.773926	928.902954	38.825928	716.028320	888.742920	499.694000	563.653992	817.552307	80.110985	546.247375	932.464905	38.784481	459.097778	0.000000	0.000000	0.000000	0.000000	0.000000	0.000000	0.000000	0.000000	0.000000	0.000000	0.000000	0.000000	0.000000	0.000000	0.000000	0.000000	0.000000	0.000000	0.000000	0.000000	0.000000	0.000000	0.000000	0.000000	0.000000	0.000000	0.000000	0.000000	0.000000	0.000000	0.000000	0.000000	0.000000	0.000000	0.000000	0.000000	0.000000	0.000000	0.000000	0.000000	0.000000	0.000000	0.000000	0.000000	0.000000	0.000000	0.000000	0.000000	0.000000	0.000000	0.000000	0.000000	0.000000	0.000000	0.000000	0.000000	0.000000	0.000000	0.000000	0.000000	0.000000	0.000000	0.000000	0.000000	0.000000	0.000000	0.000000	0.000000	0.000000	0.000000	0.000000	0.000000	0.000000	0.000000	0.000000	0.000000	0.000000	0.000000	0.000000	0.000000	0.000000	
4	0.020000	966.019104	1390.550537	588.060120	971.852783	1230.984375	581.276733	832.437500	1488.589111	587.832031	738.215820	1233.209961	564.912964	835.910339	1480.826782	732.685730	869.161621	1495.205078	443.369781	871.648865	1462.397339	911.881104	904.323730	1473.197144	1005.477112	933.362183	1373.173584	1016.374390	940.091064	1474.118774	1172.419312	1015.246643	1436.295166	1251.374756	950.654541	1466.214600	1271.238403	938.844971	1479.665771	276.553345	992.704651	1491.453491	167.338943	1004.738708	1389.545776	152.872635	1023.524963	1479.072510	23.206032	1122.797852	1435.297607	-43.343311	1058.603516	1462.948975	-70.652878	959.383179	943.640564	678.988098	957.841553	935.719788	471.197906	758.337708	1009.932190	604.776184	763.934265	1008.611755	525.930359	856.643860	883.263000	753.378418	861.348877	512.471619	730.548767	862.936951	441.149139	732.423218	905.785522	398.091949	681.449951	781.545105	93.198242	725.021912	724.815857	49.735828	681.612549	927.043823	43.095592	676.660706	888.887024	30.958681	761.606201	872.177124	882.792480	393.894958	867.959229	497.407013	433.892303	874.143066	438.976654	436.882751	916.065247	393.539551	483.841095	781.245544	76.653137	462.527466	733.314880	53.571293	512.949707	942.555603	40.126717	497.964661	889.561096	33.122940	422.910553	868.987061	501.972107	601.085815	807.824768	94.631798	640.770264	928.901367	38.826046	716.026245	888.772339	499.686188	563.649780	817.552673	80.108536	546.246521	932.462280	38.784939	459.096069	0.000000	0.000000	0.000000	0.000000	0.000000	0.000000	0.000000	0.000000	0.000000	0.000000	0.000000	0.000000	0.000000	0.000000	0.000000	0.000000	0.000000	0.000000	0.000000	0.000000	0.000000	0.000000	0.000000	0.000000	0.000000	0.000000	0.000000	0.000000	0.000000	0.000000	0.000000	0.000000	0.000000	0.000000	0.000000	0.000000	0.000000	0.000000	0.000000	0.000000	0.000000	0.000000	0.000000	0.000000	0.000000	0.000000	0.000000	0.000000	0.000000	0.000000	0.000000	0.000000	0.000000	0.000000	0.000000	0.000000	0.000000	0.000000	0.000000	0.000000	0.000000	0.000000	0.000000	0.000000	0.000000	0.000000	0.000000	0.000000	0.000000	0.000000	0.000000	0.000000	0.000000	0.000000	0.000000	0.000000	0.000000	0.000000	0.000000	0.000000	0.000000	
